<mxfile host="app.diagrams.net" modified="2023-01-26T18:24:23.015Z" agent="5.0 (Macintosh; Intel Mac OS X 10_15_7) AppleWebKit/537.36 (KHTML, like Gecko) Chrome/109.0.0.0 Safari/537.36" etag="oWEp4vaPDmZjAoS7jLKz" version="20.8.12" type="github">
  <diagram name="Page-1" id="7BV6OY_YcrySIKGYkfDc">
    <mxGraphModel dx="1163" dy="878" grid="1" gridSize="10" guides="1" tooltips="1" connect="1" arrows="1" fold="1" page="1" pageScale="1" pageWidth="827" pageHeight="1169" math="0" shadow="0">
      <root>
        <mxCell id="0" />
        <mxCell id="1" parent="0" />
        <mxCell id="XLgy7Tt9d7wWwnOZs66s-1" value="monobank" style="ellipse;whiteSpace=wrap;html=1;" vertex="1" parent="1">
          <mxGeometry x="379" y="400" width="70" height="70" as="geometry" />
        </mxCell>
        <mxCell id="XLgy7Tt9d7wWwnOZs66s-2" value="user" style="rounded=0;whiteSpace=wrap;html=1;" vertex="1" parent="1">
          <mxGeometry x="150" y="320" width="120" height="60" as="geometry" />
        </mxCell>
        <mxCell id="XLgy7Tt9d7wWwnOZs66s-3" value="NBU" style="rounded=0;whiteSpace=wrap;html=1;" vertex="1" parent="1">
          <mxGeometry x="150" y="550" width="120" height="60" as="geometry" />
        </mxCell>
        <mxCell id="XLgy7Tt9d7wWwnOZs66s-4" value="support" style="rounded=0;whiteSpace=wrap;html=1;" vertex="1" parent="1">
          <mxGeometry x="550" y="550" width="120" height="60" as="geometry" />
        </mxCell>
      </root>
    </mxGraphModel>
  </diagram>
</mxfile>
